<svg width="57" height="57" viewBox="0 0 57 57" fill="none" xmlns="http://www.w3.org/2000/svg">
<circle cx="28.2199" cy="28.6696" r="28.05" fill="white"/>
<path d="M28.169 34.2276C26.1032 34.2276 24.4289 35.9024 24.4289 37.9682C24.4289 40.034 26.1038 41.7089 28.169 41.7089C30.2342 41.7089 31.9091 40.034 31.9091 37.9682C31.9091 35.9024 30.2845 34.2276 28.169 34.2276ZM28.2216 24.8774C24.1163 24.8774 20.1629 26.3734 17.0891 29.0867C16.3177 29.8213 16.2417 31.0018 16.9254 31.779C17.615 32.5504 18.7955 32.6264 19.5669 31.9426C21.957 29.833 25.0309 28.6701 28.2216 28.6701C31.4123 28.6701 34.492 29.8318 36.8763 31.9426C37.2328 32.2582 37.6769 32.4101 38.1152 32.4101C38.3804 32.4103 38.6427 32.3541 38.8845 32.2452C39.1263 32.1363 39.3422 31.9772 39.5178 31.7784C40.2015 31.0018 40.1314 29.8213 39.3541 29.1376C36.2803 26.426 32.3298 24.8774 28.2216 24.8774V24.8774ZM46.3492 22.8671C41.4462 18.1675 35.0122 15.5798 28.2216 15.5798C21.431 15.5798 14.9964 18.1675 10.0965 22.8671C9.35145 23.583 9.32749 24.7664 10.0417 25.5115C10.7558 26.2583 11.9392 26.2782 12.6861 25.5663C16.8319 21.488 22.4011 19.3199 28.2216 19.3199C34.0421 19.3199 39.5061 21.5388 43.7546 25.567C44.1227 25.9118 44.5844 26.0871 45.0519 26.0871C45.5431 26.0871 46.0342 25.8953 46.4012 25.5118C47.1148 24.7664 47.0914 23.5333 46.3492 22.8671V22.8671Z" fill="#9694E7"/>
</svg>
