<svg width="57" height="57" viewBox="0 0 57 57" fill="none" xmlns="http://www.w3.org/2000/svg">
<circle cx="28.6604" cy="28.6652" r="28.05" fill="white"/>
<path d="M39.2567 27.8542C39.2567 25.872 38.5437 24.4999 37.9337 23.4317L37.7467 23.1278C37.0057 21.9357 36.3582 20.8885 36.3582 19.6683C36.3582 18.1957 37.4755 16.8212 39.051 16.8212C39.0977 16.8212 39.1421 16.8259 39.1866 16.8282L39.259 16.8352C36.3048 14.1217 32.4383 12.6182 28.427 12.6231C25.7685 12.6217 23.1514 13.2818 20.8116 14.5439C18.4718 15.8061 16.4828 17.6305 15.0238 19.8529C15.3978 19.8646 15.7555 19.874 16.057 19.874C17.733 19.874 20.3299 19.6706 20.3299 19.6706C21.1948 19.6192 21.2977 20.8885 20.4328 20.9913C20.4328 20.9913 19.5656 21.0942 18.5979 21.1432L24.4416 38.5202L27.9479 27.9874L25.4467 21.1409C24.5842 21.0895 23.7661 20.989 23.7661 20.989C22.9012 20.9375 23.004 19.6145 23.8666 19.6659C23.8666 19.6659 26.5173 19.8693 28.0928 19.8693C29.7711 19.8693 32.3704 19.6659 32.3704 19.6659C33.2353 19.6145 33.3358 20.8861 32.4709 20.989C32.4709 20.989 31.6014 21.0895 30.636 21.1409L36.433 38.3846L38.0318 33.0388L38.1581 32.6344C38.7892 30.6241 39.2543 29.1398 39.2543 27.8519L39.2567 27.8542ZM12.3848 28.6653C12.3846 31.6778 13.2325 34.6294 14.8315 37.1825C16.4305 39.7355 18.7159 41.7868 21.4262 43.1017L13.7709 22.1343C12.8542 24.1895 12.3819 26.415 12.3848 28.6653Z" fill="#9694E7"/>
<path d="M23.8945 44.0529L28.7098 30.0677L33.6396 43.5784C33.6723 43.6555 33.7097 43.728 33.7541 43.7981C30.5761 44.9177 27.1261 45.0069 23.8945 44.0529ZM42.501 20.9678C42.5712 21.4797 42.6109 22.0267 42.6109 22.618C42.6109 24.2449 42.307 26.0752 41.3907 28.3636L36.4913 42.5289C40.1068 40.4283 42.7587 36.9986 43.8818 32.9709C45.0048 28.9432 44.5102 24.6361 42.5034 20.9678H42.501Z" fill="#9694E7"/>
<path fill-rule="evenodd" clip-rule="evenodd" d="M9.72656 28.6653C9.72656 18.3546 18.1159 9.96533 28.4266 9.96533C38.7349 9.96533 47.1266 18.3546 47.1266 28.6653C47.1266 38.976 38.7349 47.3653 28.4266 47.3653C18.1159 47.3653 9.72656 38.976 9.72656 28.6653ZM10.5844 28.6653C10.5844 38.5039 18.588 46.5075 28.4266 46.5075C38.2628 46.5075 46.2664 38.5039 46.2664 28.6653C46.2664 18.8245 38.2628 10.8232 28.4266 10.8232C18.5857 10.8232 10.5844 18.8245 10.5844 28.6653Z" fill="#9694E7"/>
</svg>
