<svg width="57" height="57" viewBox="0 0 57 57" fill="none" xmlns="http://www.w3.org/2000/svg">
<circle cx="28.9104" cy="28.6652" r="28.05" fill="white"/>
<path fill-rule="evenodd" clip-rule="evenodd" d="M13.0156 28.6652C13.0156 33.0048 14.7395 37.1667 17.8081 40.2353C20.8767 43.3038 25.0385 45.0277 29.3781 45.0277C33.7177 45.0277 37.8796 43.3038 40.9482 40.2353C44.0167 37.1667 45.7406 33.0048 45.7406 28.6652C45.7406 24.3256 44.0167 20.1638 40.9482 17.0952C37.8796 14.0266 33.7177 12.3027 29.3781 12.3027C25.0385 12.3027 20.8767 14.0266 17.8081 17.0952C14.7395 20.1638 13.0156 24.3256 13.0156 28.6652ZM42.9356 28.6652C42.9356 32.2609 41.5072 35.7093 38.9647 38.2518C36.4222 40.7944 32.9738 42.2227 29.3781 42.2227C25.7825 42.2227 22.334 40.7944 19.7915 38.2518C17.249 35.7093 15.8206 32.2609 15.8206 28.6652C15.8206 25.0696 17.249 21.6212 19.7915 19.0786C22.334 16.5361 25.7825 15.1077 29.3781 15.1077C32.9738 15.1077 36.4222 16.5361 38.9647 19.0786C41.5072 21.6212 42.9356 25.0696 42.9356 28.6652Z" fill="#9694E7"/>
<path fill-rule="evenodd" clip-rule="evenodd" d="M22.3652 28.6653C22.3652 37.1214 25.1534 44.0928 29.3777 44.0928C33.6021 44.0928 36.3902 37.1214 36.3902 28.6653C36.3902 20.2092 33.6021 13.2378 29.3777 13.2378C25.1534 13.2378 22.3652 20.2092 22.3652 28.6653ZM33.5852 28.6653C33.5852 35.7002 31.3506 41.2878 29.3777 41.2878C27.4049 41.2878 25.1702 35.7002 25.1702 28.6653C25.1702 21.6304 27.4049 16.0428 29.3777 16.0428C31.3506 16.0428 33.5852 21.6304 33.5852 28.6653Z" fill="#9694E7"/>
<path d="M17.4134 20.1888L19.2947 18.1094C19.4817 18.2777 19.6855 18.446 19.9024 18.6087C22.2792 20.3889 26.0734 21.4885 30.2155 21.4885C33.7516 21.4885 37.0447 20.69 39.4364 19.323C40.0124 18.9939 40.5248 18.6367 40.968 18.2571L42.7893 20.3908C42.1808 20.9069 41.5246 21.364 40.8296 21.7559C37.9947 23.379 34.221 24.2916 30.2155 24.2916C25.4993 24.2916 21.1179 23.0237 18.2194 20.8527C17.9407 20.6439 17.6718 20.4224 17.4134 20.1888ZM17.4134 37.1722L19.2947 39.2516C19.4817 39.0814 19.6855 38.915 19.9024 38.7523C22.2792 36.9721 26.0734 35.8725 30.2155 35.8725C33.7516 35.8725 37.0447 36.671 39.4364 38.038C40.0124 38.3671 40.5248 38.7243 40.968 39.1039L42.7893 36.9702C42.1801 36.455 41.524 35.998 40.8296 35.6051C37.9947 33.9819 34.221 33.0694 30.2155 33.0694C25.4993 33.0694 21.1179 34.3372 18.2194 36.5083C17.9407 36.7171 17.6717 36.9386 17.4134 37.1722ZM13.9502 30.068V27.263H44.8052V30.068H13.9502Z" fill="#9694E7"/>
</svg>
