<svg width="57" height="57" viewBox="0 0 57 57" fill="none" xmlns="http://www.w3.org/2000/svg">
<circle cx="28.6604" cy="28.6047" r="28.05" fill="white"/>
<path d="M15.4727 36.396C16.8401 38.7658 18.8077 40.7336 21.1772 42.1014C23.5468 43.4692 26.2349 44.1888 28.9709 44.1877C31.707 44.1888 34.395 43.4692 36.7646 42.1014C39.1342 40.7336 41.1018 38.7658 42.4692 36.396M15.4727 20.8127C16.8401 18.4429 18.8077 16.4751 21.1772 15.1073C23.5468 13.7394 26.2349 13.0199 28.9709 13.021C31.707 13.0199 34.395 13.7394 36.7646 15.1073C39.1342 16.4751 41.1018 18.4429 42.4692 20.8127" stroke="#9694E7" stroke-width="1.4025" stroke-linecap="round" stroke-linejoin="round"/>
<path d="M30.5301 44.1095C30.5301 44.1095 32.7242 41.2219 34.1065 36.3957M30.5301 13.0986C30.5301 13.0986 32.7242 15.9847 34.1065 20.8124M27.4134 44.1095C27.4134 44.1095 25.2193 41.2234 23.837 36.3957M27.4134 13.0986C27.4134 13.0986 25.2193 15.9847 23.837 20.8124M24.2967 25.4874L26.6342 33.279L28.9717 25.4874L31.3092 33.279L33.6467 25.4874M11.8301 25.4874L14.1676 33.279L16.5051 25.4874L18.8426 33.279L21.1801 25.4874M36.7634 25.4874L39.1009 33.279L41.4384 25.4874L43.7759 33.279L46.1134 25.4874" stroke="#9694E7" stroke-width="1.4025" stroke-linecap="round" stroke-linejoin="round"/>
</svg>
