<svg width="16" height="12" viewBox="0 0 16 12" fill="none" xmlns="http://www.w3.org/2000/svg">
<path d="M5.85509 11.3552C5.72689 11.3548 5.60014 11.3281 5.48272 11.2766C5.3653 11.2251 5.25972 11.15 5.17254 11.056L0.628443 6.22209C0.458579 6.04107 0.367583 5.79998 0.375473 5.55187C0.383364 5.30375 0.489495 5.06893 0.670518 4.89907C0.851542 4.7292 1.09263 4.63821 1.34074 4.6461C1.58886 4.65399 1.82368 4.76012 1.99354 4.94114L5.84574 9.04579L13.7091 0.443793C13.7889 0.344424 13.8882 0.262417 14.0008 0.20281C14.1135 0.143202 14.2371 0.107253 14.3641 0.0971694C14.4912 0.0870861 14.619 0.103082 14.7396 0.144174C14.8602 0.185266 14.9712 0.250586 15.0657 0.336124C15.1601 0.421662 15.2361 0.525611 15.289 0.641586C15.3418 0.757561 15.3704 0.883114 15.3729 1.01053C15.3755 1.13795 15.352 1.26455 15.3038 1.38254C15.2556 1.50054 15.1839 1.60745 15.0929 1.69669L6.54699 11.0467C6.46064 11.1424 6.35543 11.2192 6.23797 11.2723C6.12051 11.3254 5.99334 11.3536 5.86444 11.3552H5.85509Z" fill="#2A4AF4"/>
</svg>
