<svg width="57" height="57" viewBox="0 0 57 57" fill="none" xmlns="http://www.w3.org/2000/svg">
<circle cx="28.9504" cy="28.7204" r="28.05" fill="white"/>
<path fill-rule="evenodd" clip-rule="evenodd" d="M28.7156 13.1367C20.1092 13.1367 13.1323 20.1136 13.1323 28.72C13.1323 37.3265 20.1092 44.3034 28.7156 44.3034C37.3221 44.3034 44.299 37.3265 44.299 28.72C44.299 20.1136 37.3221 13.1367 28.7156 13.1367ZM10.0156 28.72C10.0156 18.3923 18.3879 10.02 28.7156 10.02C39.0433 10.02 47.4156 18.3923 47.4156 28.72C47.4156 39.0477 39.0433 47.42 28.7156 47.42C18.3879 47.42 10.0156 39.0477 10.0156 28.72Z" fill="#9694E7"/>
<path fill-rule="evenodd" clip-rule="evenodd" d="M24.9628 45.4498C24.812 45.2553 24.812 43.5219 24.9628 40.25C23.3484 40.3058 22.3285 40.1937 21.903 39.9139C21.2646 39.4942 20.6256 38.1997 20.0586 37.2875C19.4916 36.3752 18.2331 36.231 17.7249 36.0271C17.2167 35.8231 17.0891 34.9918 19.1253 35.6205C21.1613 36.2493 21.2606 37.9613 21.903 38.3617C22.5453 38.762 24.0809 38.5868 24.777 38.2661C25.4731 37.9454 25.4218 36.7514 25.5459 36.2783C25.7028 35.8368 25.1498 35.7388 25.1376 35.7352C24.458 35.7352 20.8882 34.9589 19.9077 31.502C18.9271 28.0451 20.1902 25.7856 20.8641 24.8143C21.3133 24.1667 21.2736 22.7867 20.7448 20.6739C22.6644 20.4287 24.1457 21.0328 25.1888 22.4866C25.1898 22.4949 26.5563 21.674 28.716 21.674C30.8756 21.674 31.6418 22.3427 32.2331 22.4866C32.8244 22.6305 33.2973 19.9418 36.9491 20.6739C36.1867 22.1724 35.5482 24.0449 36.0355 24.8143C36.5229 25.5836 38.4355 28.0301 37.2606 31.502C36.4774 33.8166 34.9377 35.2277 32.6416 35.7352C32.3783 35.8192 32.2466 35.9548 32.2466 36.1418C32.2466 36.4224 32.6026 36.453 33.1154 37.7673C33.4573 38.6435 33.482 41.146 33.1895 45.2748C32.4485 45.4635 31.872 45.5901 31.4601 45.6548C30.7297 45.7696 29.9367 45.8339 29.1575 45.8588C28.3783 45.8837 28.1077 45.8808 27.0305 45.7806C26.3124 45.7137 25.6231 45.6035 24.9628 45.4498Z" fill="#9694E7"/>
</svg>
