<svg width="57" height="57" viewBox="0 0 57 57" fill="none" xmlns="http://www.w3.org/2000/svg">
<circle cx="28.9504" cy="28.6193" r="28.05" fill="white"/>
<path d="M47.6307 17.6957C47.6428 17.7462 47.65 17.8027 47.65 17.8521V26.1185C47.6503 26.224 47.6226 26.3277 47.5697 26.419C47.5169 26.5103 47.4408 26.586 47.3492 26.6383L40.4111 30.6368V38.5519C40.4114 38.6574 40.3837 38.7611 40.3309 38.8524C40.278 38.9437 40.2019 39.0194 40.1103 39.0717L25.6278 47.4068C25.594 47.4255 25.558 47.4401 25.5207 47.4501L25.4834 47.4693C25.3827 47.4946 25.2773 47.4946 25.1765 47.4693C25.1613 47.4648 25.1468 47.4583 25.1332 47.4501C25.0985 47.4393 25.065 47.4248 25.0334 47.4068L10.5568 39.0717C10.4646 39.0196 10.3877 38.9441 10.3338 38.8529C10.28 38.7616 10.2511 38.6579 10.25 38.5519V13.7537C10.25 13.7032 10.262 13.6467 10.2753 13.5973C10.2813 13.5781 10.2873 13.566 10.2945 13.5468L10.3318 13.4529C10.3378 13.4337 10.3571 13.4216 10.3691 13.4024L10.4257 13.3266C10.4459 13.3141 10.4649 13.2996 10.4822 13.2833C10.5075 13.264 10.5255 13.246 10.5508 13.2327L17.7897 9.06461C17.8812 9.01204 17.9849 8.98438 18.0905 8.98438C18.1961 8.98438 18.2998 9.01204 18.3913 9.06461L25.6362 13.2327C25.6615 13.2448 25.6795 13.264 25.6988 13.2833L25.7613 13.3266C25.7798 13.3507 25.7967 13.376 25.8119 13.4024C25.8239 13.4144 25.8432 13.4337 25.8552 13.4529L25.8925 13.5468C25.8985 13.566 25.9117 13.5781 25.9117 13.5973C25.93 13.6474 25.9385 13.7005 25.937 13.7537V29.2398L31.9654 25.7684V17.8533C31.9677 17.7822 31.9827 17.7121 32.0099 17.6463L32.0472 17.5525C32.0592 17.5272 32.0785 17.5152 32.0905 17.4959C32.1098 17.4706 32.1218 17.4454 32.1411 17.4273C32.1603 17.4093 32.1844 17.396 32.2036 17.384C32.2217 17.364 32.2428 17.3469 32.2662 17.3335L39.5111 13.1653C39.6016 13.1098 39.7057 13.0804 39.8119 13.0804C39.9181 13.0804 40.0222 13.1098 40.1127 13.1653L47.3516 17.3335C47.3769 17.3455 47.3949 17.3648 47.4202 17.384C47.4394 17.396 47.4575 17.4093 47.4767 17.4273C47.496 17.4454 47.514 17.4706 47.5333 17.4959C47.5453 17.5152 47.5646 17.5272 47.5706 17.5525C47.5898 17.5837 47.5959 17.615 47.6079 17.6463C47.6199 17.6584 47.6271 17.6776 47.6332 17.6969L47.6307 17.6957ZM46.4395 25.7672V18.8989L43.9078 20.3525L40.4111 22.3704V29.2386L46.4395 25.7672ZM39.2079 38.2006V31.3251L35.7605 33.2864L25.9334 38.9021V45.8401L39.2079 38.2006ZM11.4509 14.7994V38.2006L24.7241 45.8401V38.9021L17.7861 34.9722C17.7608 34.9601 17.7428 34.9409 17.7235 34.9216C17.7042 34.9096 17.6802 34.8964 17.6669 34.8783H17.6609C17.6417 34.8591 17.6296 34.835 17.6104 34.8158C17.5984 34.7965 17.5791 34.7785 17.5671 34.7532C17.5531 34.7296 17.5425 34.704 17.5358 34.6774C17.5238 34.6521 17.5105 34.6341 17.5045 34.6088C17.4985 34.5835 17.4925 34.5522 17.4925 34.521C17.4865 34.4957 17.4804 34.4776 17.4804 34.4524V18.2708L13.9837 16.2529L11.4509 14.7994ZM18.0881 10.2811L12.0597 13.7525L18.0881 17.224L24.1165 13.7525L18.0881 10.2811ZM21.2274 31.9532L24.7241 29.9353V14.8006L22.1924 16.2541L18.6897 18.272V33.4067L21.2274 31.9532ZM39.8095 14.3794L33.7739 17.8509L39.8095 21.3223L45.8379 17.8509L39.8095 14.3794ZM39.2079 22.3704L33.1723 18.8989V25.7672L36.669 27.7851L39.2067 29.2386L39.2079 22.3704ZM25.327 37.8564L38.5942 30.2855L32.5718 26.814L19.3106 34.4476L25.327 37.8564Z" fill="#9694E7"/>
</svg>
