<svg width="21" height="21" viewBox="0 0 21 21" fill="none" xmlns="http://www.w3.org/2000/svg">
<path d="M20.2219 7.63137L14.203 6.75662L11.5123 1.30186C11.4388 1.15251 11.3179 1.03161 11.1686 0.958122C10.794 0.773214 10.3389 0.927304 10.1516 1.30186L7.46096 6.75662L1.442 7.63137C1.27606 7.65508 1.12434 7.73331 1.00818 7.85184C0.867752 7.99617 0.790368 8.19036 0.793035 8.39172C0.795703 8.59309 0.878202 8.78515 1.02241 8.92572L5.3772 13.1715L4.34836 19.1667C4.32424 19.3062 4.33967 19.4496 4.39291 19.5808C4.44615 19.7119 4.53507 19.8255 4.64959 19.9087C4.76411 19.9918 4.89964 20.0413 5.04082 20.0513C5.18199 20.0614 5.32316 20.0317 5.44832 19.9656L10.832 17.1351L16.2156 19.9656C16.3626 20.0439 16.5333 20.0699 16.6968 20.0415C17.1093 19.9704 17.3867 19.5792 17.3156 19.1667L16.2867 13.1715L20.6415 8.92572C20.7601 8.80956 20.8383 8.65784 20.862 8.4919C20.926 8.07704 20.6368 7.69301 20.2219 7.63137Z" fill="#DF8600"/>
</svg>
