<svg width="57" height="57" viewBox="0 0 57 57" fill="none" xmlns="http://www.w3.org/2000/svg">
<circle cx="28.2004" cy="28.3051" r="28.05" fill="white"/>
<path d="M24.6945 25.6753C24.6945 24.7073 23.9095 23.9222 22.9414 23.9222H22.0648C20.1282 23.9222 18.5586 25.4918 18.5586 27.4285V30.0582C18.5586 31.9948 20.1282 33.5644 22.0648 33.5644H22.9414C23.9095 33.5644 24.6945 32.7793 24.6945 31.8113V25.6753ZM34.3367 33.5644C36.2734 33.5644 37.843 31.9948 37.843 30.0582V27.4285C37.843 25.4918 36.2734 23.9222 34.3367 23.9222H33.4602C32.4921 23.9222 31.707 24.7073 31.707 25.6753V31.8113C31.707 32.7793 32.4921 33.5644 33.4602 33.5644H34.3367ZM28.2008 14.28C20.3764 14.28 14.4267 20.7901 14.1758 28.305V29.1816C14.1758 29.6659 14.568 30.0582 15.0523 30.0582H15.9289C16.4132 30.0582 16.8055 29.6659 16.8055 29.1816V28.305C16.8055 22.0217 21.9175 16.9097 28.2008 16.9097C34.4841 16.9097 39.5961 22.0217 39.5961 28.305H39.5895C39.5939 28.4382 39.5961 37.384 39.5961 37.384C39.5961 38.6633 38.559 39.7003 37.2798 39.7003H31.707C31.707 38.248 30.5297 37.0707 29.0773 37.0707H27.3242C25.8719 37.0707 24.6945 38.248 24.6945 39.7003C24.6945 41.1527 25.8719 42.33 27.3242 42.33H37.2798C40.0114 42.33 42.2258 40.1156 42.2258 37.384V28.305C41.9749 20.7901 36.0252 14.28 28.2008 14.28Z" fill="#9694E7"/>
</svg>
