<svg width="57" height="57" viewBox="0 0 57 57" fill="none" xmlns="http://www.w3.org/2000/svg">
<circle cx="28.2346" cy="28.8698" r="28.05" fill="white"/>
<path d="M28.1508 28.8697C35.7056 28.8697 41.8579 27.2428 42.26 25.1858V19.8095C41.8579 21.8665 35.715 23.4934 28.1508 23.4934C24.4657 23.5646 20.7907 23.0824 17.2487 22.0629V20.1929C20.7917 21.2061 24.4666 21.682 28.1508 21.6047C35.715 21.6234 41.8112 19.9965 42.26 17.9582C42.073 14.7699 33.3962 13.9097 28.235 13.9097C23.0738 13.9097 14.21 14.7792 14.21 18.0517V39.164C14.21 42.4272 23.027 43.3061 28.235 43.3061C33.4429 43.3061 42.26 42.4365 42.26 39.164V34.302C41.8579 36.3497 35.715 37.9579 28.1508 37.9579C24.468 38.0443 20.7931 37.5778 17.2487 36.5741V34.7041C20.7931 35.7078 24.468 36.1743 28.1508 36.0879C35.715 36.0879 41.8579 34.4797 42.26 32.432V27.0558C41.8579 29.1128 35.715 30.7397 28.1508 30.7397C24.4666 30.817 20.7917 30.3411 17.2487 29.3278V27.4578C20.7917 28.4711 24.4666 28.947 28.1508 28.8697V28.8697Z" fill="#9694E7"/>
</svg>
